<svg data-v-fde0c5aa="" xmlns="http://www.w3.org/2000/svg" viewBox="0 0 300 300" class="iconAbove"><!----><defs data-v-fde0c5aa=""><!----></defs><rect data-v-fde0c5aa="" fill="transparent" x="0" y="0" width="300px" height="300px" class="logo-background-square"></rect><defs data-v-fde0c5aa=""><!----></defs><g data-v-fde0c5aa="" id="fe6eaf2a-5ddb-4e11-a31a-26b4584ff672" fill="#000000" transform="matrix(6.773976832559296,0,0,6.773976832559296,48.45808721533447,175.59624517782058)"><path d="M0.99 12.29L0.99 2.69L5.61 2.69L5.61 2.69Q7.15 2.69 7.95 3.50L7.95 3.50L7.95 3.50Q8.75 4.31 8.75 5.75L8.75 5.75L8.75 5.75Q8.75 7.20 7.92 8.03L7.92 8.03L7.92 8.03Q7.08 8.86 5.52 8.86L5.52 8.86L2.79 8.86L2.79 12.29L0.99 12.29ZM2.79 7.34L5.46 7.34L5.46 7.34Q6.16 7.34 6.55 6.92L6.55 6.92L6.55 6.92Q6.94 6.50 6.94 5.75L6.94 5.75L6.94 5.75Q6.94 5.03 6.57 4.62L6.57 4.62L6.57 4.62Q6.19 4.21 5.46 4.21L5.46 4.21L2.79 4.21L2.79 7.34ZM14.60 12.46L14.60 12.46Q12.33 12.46 11.14 11.24L11.14 11.24L11.14 11.24Q9.95 10.02 9.95 7.49L9.95 7.49L9.95 7.49Q9.95 5.00 11.16 3.76L11.16 3.76L11.16 3.76Q12.36 2.52 14.60 2.52L14.60 2.52L14.60 2.52Q15.83 2.52 16.79 2.93L16.79 2.93L16.79 2.93Q17.74 3.35 18.29 4.18L18.29 4.18L18.29 4.18Q18.84 5.01 18.84 6.23L18.84 6.23L17.01 6.23L17.01 6.23Q17.01 5.18 16.36 4.61L16.36 4.61L16.36 4.61Q15.71 4.03 14.63 4.03L14.63 4.03L14.63 4.03Q13.19 4.03 12.49 4.86L12.49 4.86L12.49 4.86Q11.79 5.68 11.79 7.35L11.79 7.35L11.79 7.63L11.79 7.63Q11.79 9.31 12.48 10.13L12.48 10.13L12.48 10.13Q13.17 10.95 14.63 10.95L14.63 10.95L14.63 10.95Q15.76 10.95 16.42 10.38L16.42 10.38L16.42 10.38Q17.08 9.81 17.08 8.78L17.08 8.78L18.84 8.78L18.84 8.78Q18.84 10.58 17.68 11.52L17.68 11.52L17.68 11.52Q16.51 12.46 14.60 12.46L14.60 12.46ZM20.44 12.29L20.44 2.69L25.51 2.69L25.51 2.69Q27.06 2.69 27.85 3.46L27.85 3.46L27.85 3.46Q28.64 4.23 28.64 5.60L28.64 5.60L28.64 5.60Q28.64 6.58 28.21 7.27L28.21 7.27L28.21 7.27Q27.78 7.97 26.94 8.30L26.94 8.30L28.99 12.29L27.03 12.29L25.21 8.58L22.23 8.58L22.23 12.29L20.44 12.29ZM22.23 7.07L25.37 7.07L25.37 7.07Q26.05 7.07 26.45 6.68L26.45 6.68L26.45 6.68Q26.84 6.29 26.84 5.60L26.84 5.60L26.84 5.60Q26.84 4.94 26.46 4.58L26.46 4.58L26.46 4.58Q26.08 4.21 25.37 4.21L25.37 4.21L22.23 4.21L22.23 7.07Z"></path></g><defs data-v-fde0c5aa=""><linearGradient data-v-fde0c5aa="" gradientTransform="rotate(25)" id="c90e4520-326d-4968-9980-fb05638acce4" x1="0%" y1="0%" x2="100%" y2="0%"><stop data-v-fde0c5aa="" offset="0%" stop-color="#399AEE" stop-opacity="1"></stop><stop data-v-fde0c5aa="" offset="100%" stop-color="#1020B5" stop-opacity="1"></stop></linearGradient></defs><g data-v-fde0c5aa="" id="8d4cf154-a108-42f7-8e94-042251c0c6fd" stroke="none" fill="url(#c90e4520-326d-4968-9980-fb05638acce4)" transform="matrix(1.067368319122541,0,0,1.067368319122541,81.60107716580592,38.614385952258544)"><path d="M41.292 75.81h.002-.002z"></path><circle cx="80.649" cy="86.204" r=".75"></circle><path d="M41.292 75.81h.002-.002zM101.454 9.4l-6.832-6.837a4.312 4.312 0 1 0-6.1 6.1l.194.194-3.793 3.793-2.5-2.5a4.312 4.312 0 0 0-7.361 3.049 4.266 4.266 0 0 0 .832 2.525L47.9 43.709a4.248 4.248 0 0 0-1.236 3.191 4.681 4.681 0 0 0 1.387 3.148l1.9 1.9-8.5 8.5a1.5 1.5 0 1 0 2.121 2.121l8.5-8.5 1.9 1.9a4.678 4.678 0 0 0 3.306 1.387 4.26 4.26 0 0 0 3.034-1.237l4.395-4.4L88.3 28.126a4.305 4.305 0 0 0 5.573-6.526l-2.5-2.5 3.79-3.8.193.194a4.312 4.312 0 0 0 6.1-6.1zM58.187 54a1.5 1.5 0 0 1-2.1-.149l-5.918-5.918a1.692 1.692 0 0 1-.51-1.133 1.275 1.275 0 0 1 .36-.964l3.338-3.336 8.165 8.164zm5.456-5.456l-8.165-8.165 22.489-22.493 8.165 8.165zm28.109-24.82a1.31 1.31 0 0 1 0 1.855 1.344 1.344 0 0 1-1.856 0L78.444 14.12a1.312 1.312 0 0 1 0-1.855 1.315 1.315 0 0 1 1.856 0zm-2.5-6.747l-2.2-2.2 3.793-3.793 2.2 2.2zm10.085-3.6a1.315 1.315 0 0 1-1.856 0L90.645 6.54a1.312 1.312 0 0 1 0-1.855 1.344 1.344 0 0 1 1.856 0l6.832 6.832a1.314 1.314 0 0 1 0 1.856z"></path><path d="M73.146 33.591l.449-.449a1.083 1.083 0 0 0 0-1.531l-1.187-1.187a1.084 1.084 0 0 0-1.531 0l-.448.449-.451-.45a1.109 1.109 0 0 0-1.531 0l-1.188 1.188a1.08 1.08 0 0 0 0 1.531l.45.45-.447.448a1.078 1.078 0 0 0 0 1.532l1.186 1.187a1.083 1.083 0 0 0 1.531 0l.449-.448.449.449a1.085 1.085 0 0 0 1.53 0l1.193-1.189a1.083 1.083 0 0 0 0-1.531zM43.223 66.138a2.443 2.443 0 0 0-3.859 0c-1.973 2.536-3 4.608-3.04 6.159a4.781 4.781 0 0 0 1.376 3.494 5.021 5.021 0 0 0 7.2 0 4.785 4.785 0 0 0 1.362-3.491c-.044-1.555-1.062-3.627-3.039-6.162zm-.484 7.562a2.088 2.088 0 0 1-2.892 0 1.812 1.812 0 0 1-.525-1.318c.018-.6.553-1.9 1.971-3.823 1.418 1.926 1.953 3.226 1.971 3.823a1.813 1.813 0 0 1-.525 1.318z"></path><path d="M31.338 49.978h-21a5.946 5.946 0 0 0-5.947 5.947A5.944 5.944 0 0 0 9.5 61.808v52.146a11.338 11.338 0 0 0 22.675 0V61.807a5.944 5.944 0 0 0-.836-11.829zm-2.164 63.976a8.338 8.338 0 0 1-16.675 0v-.54h2.892a1.5 1.5 0 0 0 0-3H12.5v-4.321h6.312a1.5 1.5 0 0 0 0-3H12.5v-4.321h2.892a1.5 1.5 0 0 0 0-3H12.5v-4.321h6.312a1.5 1.5 0 1 0 0-3H12.5V84.13h2.892a1.5 1.5 0 0 0 0-3H12.5v-4.321h6.312a1.5 1.5 0 1 0 0-3H12.5v-4.322h16.674zm0-47.467H12.5v-4.614h16.674zm5.111-10.561a2.947 2.947 0 0 1-2.947 2.947h-21a2.948 2.948 0 0 1 0-5.895h21a2.946 2.946 0 0 1 2.947 2.947zM98.01 68.516a23.465 23.465 0 1 0 0 33.183 23.31 23.31 0 0 0 0-33.183zM60.953 85.107a20.444 20.444 0 0 1 33.832-15.471L65.946 98.474a20.3 20.3 0 0 1-4.993-13.367zm34.936 14.471a20.431 20.431 0 0 1-27.821 1.022L96.9 71.76a20.478 20.478 0 0 1-1.011 27.818z"></path><path d="M122.179 118.211L105.665 101.7A29.38 29.38 0 1 0 98 109.349l16.514 16.514a5.414 5.414 0 1 0 7.661-7.652zM62.766 103.76a26.379 26.379 0 1 1 37.3 0 26.407 26.407 0 0 1-37.3 0zm57.292 19.981a2.421 2.421 0 0 1-3.419 0l-16.231-16.23c.61-.517 1.207-1.055 1.782-1.63s1.114-1.171 1.634-1.783l16.23 16.231a2.428 2.428 0 0 1 .004 3.412z"></path><path d="M96.375 80.472a4.847 4.847 0 0 0-4.215-2.593q-.16 0-.318.012a4.715 4.715 0 0 0-2.564 1l-.129-.158a10.241 10.241 0 0 0-1.421-1.388 4.468 4.468 0 0 0-3.328-7.171 4.04 4.04 0 0 0-.246-.007 4.441 4.441 0 0 0-3.869 2.261 4.515 4.515 0 0 0-.544 2.77 9.912 9.912 0 0 0-1.171.25 5 5 0 1 0-6.879 6.286 10.387 10.387 0 0 0-.548 2.125 4.548 4.548 0 0 0-.67-.05 4.505 4.505 0 0 0-.026 9.01h.193a4.558 4.558 0 0 0 2.682-1.019 19.517 19.517 0 0 0 1.533 1.527 4.6 4.6 0 0 0 3.464 7.423h.158a4.72 4.72 0 0 0 4.2-2.71 4.619 4.619 0 0 0 .351-2.589 10.229 10.229 0 0 0 1.161-.269 5.126 5.126 0 0 0 1.708 2.848 4.829 4.829 0 0 0 3.073 1.074 4.605 4.605 0 0 0 2.157-.518 4.72 4.72 0 0 0 1.41-7.21 5.191 5.191 0 0 0-2.039-1.5 10.307 10.307 0 0 0 .89-2.708 4.682 4.682 0 0 0 4.991-6.7zM92.6 84.186a1.674 1.674 0 0 1-1.291-.2.616.616 0 0 0-.318-.091.582.582 0 0 0-.209.039l-1.345.52a1.391 1.391 0 0 0-.894 1.226 7.266 7.266 0 0 1-1.11 3.534 1.385 1.385 0 0 0 .026 1.5l1.122 1.713a.611.611 0 0 0 .47.271 1.719 1.719 0 0 1 .665 3.24 1.619 1.619 0 0 1-.747.166 1.824 1.824 0 0 1-1.14-.369 1.72 1.72 0 0 1-.613-1.5.6.6 0 0 0-.187-.5L85.5 92.307a1.331 1.331 0 0 0-.916-.357 1.461 1.461 0 0 0-.552.11 7.252 7.252 0 0 1-2.5.535 1.381 1.381 0 0 0-1.226.895l-.512 1.324a.559.559 0 0 0 .046.5 1.6 1.6 0 0 1 .095 1.507 1.756 1.756 0 0 1-1.457.935h-.042a1.6 1.6 0 0 1-.755-2.984.569.569 0 0 0 .284-.417l.187-1.455a1.391 1.391 0 0 0-.646-1.368 7.175 7.175 0 0 1-1.768-1.515 7.053 7.053 0 0 1-.639-.893 1.394 1.394 0 0 0-1.43-.645l-1.479.254a.526.526 0 0 0-.378.276 1.512 1.512 0 0 1-1.3.815h-.065a1.463 1.463 0 0 1-1.289-.77A1.505 1.505 0 0 1 71.215 87a.525.525 0 0 0 .465.022l1.507-.656a1.4 1.4 0 0 0 .854-1.226 7.267 7.267 0 0 1 .87-3.25 1.436 1.436 0 0 0-.04-1.472l-.564-.863a.714.714 0 0 0-.549-.315 2.005 2.005 0 0 1-1.636-1.091 2 2 0 1 1 3.775-.7.709.709 0 0 0 .217.592l.529.494a1.411 1.411 0 0 0 .96.381 1.338 1.338 0 0 0 .581-.131 7.239 7.239 0 0 1 2.963-.7 1.388 1.388 0 0 0 1.252-.875l.551-1.36a.511.511 0 0 0-.036-.455 1.478 1.478 0 0 1-.01-1.5 1.427 1.427 0 0 1 1.254-.731h.082a1.471 1.471 0 0 1 .651 2.754.521.521 0 0 0-.267.379l-.209 1.444a1.391 1.391 0 0 0 .649 1.392 7.176 7.176 0 0 1 1.788 1.528 6.977 6.977 0 0 1 .633.883 1.393 1.393 0 0 0 1.369.651l1.439-.184a.6.6 0 0 0 .439-.3 1.682 1.682 0 0 1 1.339-.833.87.87 0 0 1 .089 0 1.853 1.853 0 0 1 1.524.92 1.681 1.681 0 0 1-1.084 2.388z"></path><circle cx="85.562" cy="85.861" r="1.303"></circle><circle cx="81.772" cy="90.158" r="1.054"></circle><circle cx="77.145" cy="84.534" r=".922"></circle><circle cx="80.649" cy="86.204" r=".75"></circle><circle cx="81.376" cy="81.146" r=".732"></circle></g><!----></svg>