<svg data-v-fde0c5aa="" xmlns="http://www.w3.org/2000/svg" viewBox="0 0 300 300" class="iconAbove"><!----><defs data-v-fde0c5aa=""><!----></defs><rect data-v-fde0c5aa="" fill="transparent" x="0" y="0" width="300px" height="300px" class="logo-background-square"></rect><defs data-v-fde0c5aa=""><!----></defs><g data-v-fde0c5aa="" id="fe5f8069-22ce-4607-82e4-2f1bd53ee7c9" fill="#FFFFFF" transform="matrix(6.773976832559296,0,0,6.773976832559296,48.627438897207156,175.59624517782058)"><path d="M0.94 12.29L0.94 2.69L5.52 2.69L5.52 2.69Q7.13 2.69 7.94 3.51L7.94 3.51L7.94 3.51Q8.75 4.33 8.75 5.82L8.75 5.82L8.75 5.82Q8.75 7.32 7.90 8.15L7.90 8.15L7.90 8.15Q7.06 8.99 5.38 8.99L5.38 8.99L2.97 8.99L2.97 12.29L0.94 12.29ZM2.97 7.27L5.33 7.27L5.33 7.27Q5.99 7.27 6.34 6.89L6.34 6.89L6.34 6.89Q6.69 6.51 6.69 5.82L6.69 5.82L6.69 5.82Q6.69 5.15 6.34 4.78L6.34 4.78L6.34 4.78Q5.99 4.41 5.33 4.41L5.33 4.41L2.97 4.41L2.97 7.27ZM14.57 12.46L14.57 12.46Q9.93 12.46 9.93 7.49L9.93 7.49L9.93 7.49Q9.93 5.00 11.14 3.76L11.14 3.76L11.14 3.76Q12.36 2.52 14.57 2.52L14.57 2.52L14.57 2.52Q15.79 2.52 16.77 2.93L16.77 2.93L16.77 2.93Q17.74 3.35 18.30 4.19L18.30 4.19L18.30 4.19Q18.87 5.04 18.87 6.26L18.87 6.26L16.79 6.26L16.79 6.26Q16.79 5.32 16.18 4.78L16.18 4.78L16.18 4.78Q15.58 4.24 14.62 4.24L14.62 4.24L14.62 4.24Q13.30 4.24 12.66 5.03L12.66 5.03L12.66 5.03Q12.01 5.81 12.01 7.28L12.01 7.28L12.01 7.70L12.01 7.70Q12.01 10.74 14.62 10.74L14.62 10.74L14.62 10.74Q15.64 10.74 16.25 10.21L16.25 10.21L16.25 10.21Q16.86 9.67 16.86 8.74L16.86 8.74L18.87 8.74L18.87 8.74Q18.87 9.97 18.31 10.80L18.31 10.80L18.31 10.80Q17.75 11.63 16.79 12.05L16.79 12.05L16.79 12.05Q15.82 12.46 14.57 12.46L14.57 12.46ZM20.38 12.29L20.38 2.69L25.48 2.69L25.48 2.69Q27.09 2.69 27.90 3.48L27.90 3.48L27.90 3.48Q28.71 4.27 28.71 5.70L28.71 5.70L28.71 5.70Q28.71 7.71 27.03 8.39L27.03 8.39L28.99 12.29L26.80 12.29L25.10 8.71L22.41 8.71L22.41 12.29L20.38 12.29ZM22.41 7.01L25.30 7.01L25.30 7.01Q25.96 7.01 26.31 6.66L26.31 6.66L26.31 6.66Q26.66 6.31 26.66 5.70L26.66 5.70L26.66 5.70Q26.66 5.08 26.31 4.75L26.31 4.75L26.31 4.75Q25.96 4.41 25.30 4.41L25.30 4.41L22.41 4.41L22.41 7.01Z"></path></g><defs data-v-fde0c5aa=""><!----></defs><g data-v-fde0c5aa="" id="fbb5c42a-2083-4eb7-ba15-00fb8d9cc15c" stroke="none" fill="#FFFFFF" transform="matrix(1.067368319122541,0,0,1.067368319122541,81.60107716580592,38.614385952258544)"><path d="M41.292 75.81h.002-.002z"></path><circle cx="80.649" cy="86.204" r=".75"></circle><path d="M41.292 75.81h.002-.002zM101.454 9.4l-6.832-6.837a4.312 4.312 0 1 0-6.1 6.1l.194.194-3.793 3.793-2.5-2.5a4.312 4.312 0 0 0-7.361 3.049 4.266 4.266 0 0 0 .832 2.525L47.9 43.709a4.248 4.248 0 0 0-1.236 3.191 4.681 4.681 0 0 0 1.387 3.148l1.9 1.9-8.5 8.5a1.5 1.5 0 1 0 2.121 2.121l8.5-8.5 1.9 1.9a4.678 4.678 0 0 0 3.306 1.387 4.26 4.26 0 0 0 3.034-1.237l4.395-4.4L88.3 28.126a4.305 4.305 0 0 0 5.573-6.526l-2.5-2.5 3.79-3.8.193.194a4.312 4.312 0 0 0 6.1-6.1zM58.187 54a1.5 1.5 0 0 1-2.1-.149l-5.918-5.918a1.692 1.692 0 0 1-.51-1.133 1.275 1.275 0 0 1 .36-.964l3.338-3.336 8.165 8.164zm5.456-5.456l-8.165-8.165 22.489-22.493 8.165 8.165zm28.109-24.82a1.31 1.31 0 0 1 0 1.855 1.344 1.344 0 0 1-1.856 0L78.444 14.12a1.312 1.312 0 0 1 0-1.855 1.315 1.315 0 0 1 1.856 0zm-2.5-6.747l-2.2-2.2 3.793-3.793 2.2 2.2zm10.085-3.6a1.315 1.315 0 0 1-1.856 0L90.645 6.54a1.312 1.312 0 0 1 0-1.855 1.344 1.344 0 0 1 1.856 0l6.832 6.832a1.314 1.314 0 0 1 0 1.856z"></path><path d="M73.146 33.591l.449-.449a1.083 1.083 0 0 0 0-1.531l-1.187-1.187a1.084 1.084 0 0 0-1.531 0l-.448.449-.451-.45a1.109 1.109 0 0 0-1.531 0l-1.188 1.188a1.08 1.08 0 0 0 0 1.531l.45.45-.447.448a1.078 1.078 0 0 0 0 1.532l1.186 1.187a1.083 1.083 0 0 0 1.531 0l.449-.448.449.449a1.085 1.085 0 0 0 1.53 0l1.193-1.189a1.083 1.083 0 0 0 0-1.531zM43.223 66.138a2.443 2.443 0 0 0-3.859 0c-1.973 2.536-3 4.608-3.04 6.159a4.781 4.781 0 0 0 1.376 3.494 5.021 5.021 0 0 0 7.2 0 4.785 4.785 0 0 0 1.362-3.491c-.044-1.555-1.062-3.627-3.039-6.162zm-.484 7.562a2.088 2.088 0 0 1-2.892 0 1.812 1.812 0 0 1-.525-1.318c.018-.6.553-1.9 1.971-3.823 1.418 1.926 1.953 3.226 1.971 3.823a1.813 1.813 0 0 1-.525 1.318z"></path><path d="M31.338 49.978h-21a5.946 5.946 0 0 0-5.947 5.947A5.944 5.944 0 0 0 9.5 61.808v52.146a11.338 11.338 0 0 0 22.675 0V61.807a5.944 5.944 0 0 0-.836-11.829zm-2.164 63.976a8.338 8.338 0 0 1-16.675 0v-.54h2.892a1.5 1.5 0 0 0 0-3H12.5v-4.321h6.312a1.5 1.5 0 0 0 0-3H12.5v-4.321h2.892a1.5 1.5 0 0 0 0-3H12.5v-4.321h6.312a1.5 1.5 0 1 0 0-3H12.5V84.13h2.892a1.5 1.5 0 0 0 0-3H12.5v-4.321h6.312a1.5 1.5 0 1 0 0-3H12.5v-4.322h16.674zm0-47.467H12.5v-4.614h16.674zm5.111-10.561a2.947 2.947 0 0 1-2.947 2.947h-21a2.948 2.948 0 0 1 0-5.895h21a2.946 2.946 0 0 1 2.947 2.947zM98.01 68.516a23.465 23.465 0 1 0 0 33.183 23.31 23.31 0 0 0 0-33.183zM60.953 85.107a20.444 20.444 0 0 1 33.832-15.471L65.946 98.474a20.3 20.3 0 0 1-4.993-13.367zm34.936 14.471a20.431 20.431 0 0 1-27.821 1.022L96.9 71.76a20.478 20.478 0 0 1-1.011 27.818z"></path><path d="M122.179 118.211L105.665 101.7A29.38 29.38 0 1 0 98 109.349l16.514 16.514a5.414 5.414 0 1 0 7.661-7.652zM62.766 103.76a26.379 26.379 0 1 1 37.3 0 26.407 26.407 0 0 1-37.3 0zm57.292 19.981a2.421 2.421 0 0 1-3.419 0l-16.231-16.23c.61-.517 1.207-1.055 1.782-1.63s1.114-1.171 1.634-1.783l16.23 16.231a2.428 2.428 0 0 1 .004 3.412z"></path><path d="M96.375 80.472a4.847 4.847 0 0 0-4.215-2.593q-.16 0-.318.012a4.715 4.715 0 0 0-2.564 1l-.129-.158a10.241 10.241 0 0 0-1.421-1.388 4.468 4.468 0 0 0-3.328-7.171 4.04 4.04 0 0 0-.246-.007 4.441 4.441 0 0 0-3.869 2.261 4.515 4.515 0 0 0-.544 2.77 9.912 9.912 0 0 0-1.171.25 5 5 0 1 0-6.879 6.286 10.387 10.387 0 0 0-.548 2.125 4.548 4.548 0 0 0-.67-.05 4.505 4.505 0 0 0-.026 9.01h.193a4.558 4.558 0 0 0 2.682-1.019 19.517 19.517 0 0 0 1.533 1.527 4.6 4.6 0 0 0 3.464 7.423h.158a4.72 4.72 0 0 0 4.2-2.71 4.619 4.619 0 0 0 .351-2.589 10.229 10.229 0 0 0 1.161-.269 5.126 5.126 0 0 0 1.708 2.848 4.829 4.829 0 0 0 3.073 1.074 4.605 4.605 0 0 0 2.157-.518 4.72 4.72 0 0 0 1.41-7.21 5.191 5.191 0 0 0-2.039-1.5 10.307 10.307 0 0 0 .89-2.708 4.682 4.682 0 0 0 4.991-6.7zM92.6 84.186a1.674 1.674 0 0 1-1.291-.2.616.616 0 0 0-.318-.091.582.582 0 0 0-.209.039l-1.345.52a1.391 1.391 0 0 0-.894 1.226 7.266 7.266 0 0 1-1.11 3.534 1.385 1.385 0 0 0 .026 1.5l1.122 1.713a.611.611 0 0 0 .47.271 1.719 1.719 0 0 1 .665 3.24 1.619 1.619 0 0 1-.747.166 1.824 1.824 0 0 1-1.14-.369 1.72 1.72 0 0 1-.613-1.5.6.6 0 0 0-.187-.5L85.5 92.307a1.331 1.331 0 0 0-.916-.357 1.461 1.461 0 0 0-.552.11 7.252 7.252 0 0 1-2.5.535 1.381 1.381 0 0 0-1.226.895l-.512 1.324a.559.559 0 0 0 .046.5 1.6 1.6 0 0 1 .095 1.507 1.756 1.756 0 0 1-1.457.935h-.042a1.6 1.6 0 0 1-.755-2.984.569.569 0 0 0 .284-.417l.187-1.455a1.391 1.391 0 0 0-.646-1.368 7.175 7.175 0 0 1-1.768-1.515 7.053 7.053 0 0 1-.639-.893 1.394 1.394 0 0 0-1.43-.645l-1.479.254a.526.526 0 0 0-.378.276 1.512 1.512 0 0 1-1.3.815h-.065a1.463 1.463 0 0 1-1.289-.77A1.505 1.505 0 0 1 71.215 87a.525.525 0 0 0 .465.022l1.507-.656a1.4 1.4 0 0 0 .854-1.226 7.267 7.267 0 0 1 .87-3.25 1.436 1.436 0 0 0-.04-1.472l-.564-.863a.714.714 0 0 0-.549-.315 2.005 2.005 0 0 1-1.636-1.091 2 2 0 1 1 3.775-.7.709.709 0 0 0 .217.592l.529.494a1.411 1.411 0 0 0 .96.381 1.338 1.338 0 0 0 .581-.131 7.239 7.239 0 0 1 2.963-.7 1.388 1.388 0 0 0 1.252-.875l.551-1.36a.511.511 0 0 0-.036-.455 1.478 1.478 0 0 1-.01-1.5 1.427 1.427 0 0 1 1.254-.731h.082a1.471 1.471 0 0 1 .651 2.754.521.521 0 0 0-.267.379l-.209 1.444a1.391 1.391 0 0 0 .649 1.392 7.176 7.176 0 0 1 1.788 1.528 6.977 6.977 0 0 1 .633.883 1.393 1.393 0 0 0 1.369.651l1.439-.184a.6.6 0 0 0 .439-.3 1.682 1.682 0 0 1 1.339-.833.87.87 0 0 1 .089 0 1.853 1.853 0 0 1 1.524.92 1.681 1.681 0 0 1-1.084 2.388z"></path><circle cx="85.562" cy="85.861" r="1.303"></circle><circle cx="81.772" cy="90.158" r="1.054"></circle><circle cx="77.145" cy="84.534" r=".922"></circle><circle cx="80.649" cy="86.204" r=".75"></circle><circle cx="81.376" cy="81.146" r=".732"></circle></g><!----></svg>